<svg
  width="300"
  height="300"
  viewBox="0 0 264.58333 264.58333"
  xmlns="http://www.w3.org/2000/svg"
>
  <path
    d="m 91.926066,99.035695 c -0.416763,23.740255 -3.525568,64.668965 3.515975,74.921495 7.526099,10.95804 20.959809,4.2855 26.957909,10.49202 7.80984,8.08122 4.63704,24.00091 5.75633,31.01166 0.86472,5.41617 4.27024,11.3763 11.1334,12.11578 5.78444,0.62326 15.58083,1.30189 15.50979,-19.85188 -0.0513,-15.3031 -1.55689,-37.44166 -7.78627,-42.78995 -11.20309,-9.61854 -22.07022,5.21707 -27.15131,-19.21497 -2.15648,-10.3693 0.28464,-68.82443 0.14436,-77.866061 -0.3398,-21.901284 4.66006,-30.982293 14.90077,-30.783736 9.27799,0.179894 13.01285,7.559334 12.90331,31.434368 -0.0272,5.94865 -0.48783,22.945314 -0.69561,48.736809 -0.14124,17.52348 5.42401,22.11749 11.7512,22.72312 9.62278,0.92107 15.58196,-6.05829 15.74508,-21.21469 0.20234,-18.799783 0.38594,-43.438781 0.38594,-43.438781"
    fill="none"
    stroke="#44302d"
    stroke-width="16"
    stroke-linecap="round"
    stroke-dasharray="1000"
    stroke-dashoffset="1000"
  >
    <animate
      attributeName="stroke-dashoffset"
      from="1000"
      to="0"
      dur="1.5s"
      repeatCount="1"
      fill="freeze"
    />
  </path>
</svg>
